<?xml version="1.0" encoding="UTF-8"?><svg id="Layer_1" xmlns="http://www.w3.org/2000/svg" xmlns:xlink="http://www.w3.org/1999/xlink" viewBox="0 0 576 108"><defs><style>.cls-1{fill:#a7a9ac;}.cls-2{fill:#6d6e71;}.cls-3{fill:#005295;}.cls-4{clip-path:url(#clippath);}.cls-5{fill:none;}</style><clipPath id="clippath"><rect class="cls-5" width="576" height="108"/></clipPath></defs><g class="cls-4"><path class="cls-3" d="m218.52,61.14v-25.6h-8.59v29.36c0,5.41,1.94,8.11,5.84,8.11,3.21,0,5.47-1.25,6.8-3.76-2.7-.87-4.04-3.58-4.04-8.12"/><path class="cls-3" d="m48.22,68.77c-.78,1.27-2.14,2.31-4.08,3.11-1.94.8-3.96,1.21-6.07,1.21-3.96,0-7.08-.99-9.35-2.97-2.27-1.98-3.4-4.79-3.4-8.44,0-4.26,1.6-7.59,4.8-10,3.2-2.4,7.75-3.61,13.65-3.61,1.01,0,2.2.17,3.58.5,0-4.31-2.74-6.47-8.22-6.47-3.23,0-5.94.54-8.12,1.62l-1.86-6.67c2.96-1.41,6.48-2.12,10.56-2.12,5.62,0,9.74,1.28,12.35,3.83,2.61,2.55,3.92,7.39,3.92,14.51v7.86c0,4.9.99,7.98,2.96,9.24-.71,1.25-1.5,2.01-2.38,2.3-.87.29-1.88.43-3,.43-1.25,0-2.36-.45-3.36-1.36-.99-.91-1.66-1.89-2-2.96m-.81-13.68c-1.47-.3-2.57-.46-3.31-.46-6.79,0-10.19,2.22-10.19,6.67,0,3.3,1.92,4.95,5.75,4.95,5.16,0,7.75-2.58,7.75-7.73v-3.44Z"/><polygon class="cls-3" points="80.33 73.08 77.24 73.08 60.61 35.58 70.07 35.58 78.81 58.07 88.31 35.58 97.41 35.58 80.33 73.08"/><path class="cls-3" d="m134.84,56.6h-26.32c.16,2.94,1.17,5.23,3.02,6.86,1.86,1.63,4.36,2.45,7.5,2.45,3.92,0,6.9-1.03,8.94-3.08l3.33,6.57c-3.02,2.46-7.54,3.69-13.53,3.69-5.61,0-10.05-1.64-13.31-4.93-3.26-3.29-4.89-7.87-4.89-13.76s1.79-10.49,5.38-14.08c3.59-3.6,7.89-5.39,12.91-5.39,5.34,0,9.62,1.59,12.85,4.77,3.23,3.18,4.85,7.23,4.85,12.14,0,1.05-.24,2.64-.72,4.77m-25.97-6.47h18.04c-.6-5.36-3.57-8.04-8.92-8.04-4.89,0-7.94,2.68-9.12,8.04"/><path class="cls-3" d="m167.59,72.42v-21.28c0-3.14-.6-5.43-1.81-6.88-1.2-1.44-3.17-2.17-5.9-2.17-1.26,0-2.61.36-4.04,1.07-1.43.71-2.55,1.59-3.36,2.65v26.61h-8.59v-36.85h6.19l1.58,3.44c2.34-2.73,5.79-4.1,10.35-4.1s7.84,1.31,10.37,3.94c2.53,2.62,3.8,6.29,3.8,10.98v22.58h-8.59Z"/><path class="cls-3" d="m207.28,64.39c-1.68,1.01-3.49,1.51-5.44,1.51-4.25,0-6.38-2.36-6.38-7.08v-23.24h-8.59v23.89c0,9.08,4.28,13.61,12.84,13.61,1.79,0,3.75-.37,5.88-1.1,2.11-.73,3.76-1.6,4.97-2.61v-8.38c-.56,1.29-1.66,2.43-3.29,3.41"/><path class="cls-3" d="m262.73,56.6h-26.32c.16,2.94,1.17,5.23,3.03,6.86,1.85,1.63,4.35,2.45,7.49,2.45,3.92,0,6.9-1.03,8.94-3.08l3.34,6.57c-3.02,2.46-7.53,3.69-13.53,3.69-5.61,0-10.05-1.64-13.31-4.93-3.26-3.29-4.89-7.87-4.89-13.76s1.79-10.49,5.38-14.08c3.58-3.6,7.89-5.39,12.9-5.39,5.34,0,9.62,1.59,12.86,4.77,3.23,3.18,4.85,7.23,4.85,12.14,0,1.05-.24,2.64-.72,4.77m-25.96-6.47h18.04c-.59-5.36-3.57-8.04-8.92-8.04-4.9,0-7.94,2.68-9.12,8.04"/><path class="cls-2" d="m326.43,47.83c-.94-.8-1.89-1.39-2.87-1.78-.98-.38-2-.58-3.08-.58-2.43,0-4.41.77-5.93,2.31-1.52,1.54-2.28,3.55-2.28,6.03,0,1.24.19,2.36.56,3.36.37.99.94,1.88,1.7,2.65.75.75,1.62,1.33,2.59,1.72.97.39,2.01.59,3.13.59s2.13-.18,3.16-.55c1.03-.37,2-.92,2.92-1.64v2.01c-.92.56-1.9,1-2.94,1.3-1.03.3-2.05.45-3.06.45-1.36,0-2.66-.24-3.91-.73-1.24-.49-2.31-1.17-3.2-2.06-.92-.91-1.61-1.96-2.08-3.16-.47-1.2-.71-2.52-.71-3.95s.24-2.71.73-3.93c.48-1.22,1.18-2.27,2.09-3.15.88-.87,1.95-1.54,3.19-2.03,1.25-.49,2.54-.73,3.89-.73,1.2,0,2.31.16,3.33.49,1.02.33,1.96.83,2.79,1.49l-.03,1.88Z"/><path class="cls-2" d="m320.32,63.84c-1.37,0-2.7-.25-3.95-.74-1.25-.49-2.34-1.19-3.24-2.08-.92-.91-1.63-1.99-2.11-3.2-.47-1.21-.71-2.55-.71-3.99s.25-2.76.74-3.98c.49-1.23,1.2-2.3,2.12-3.19.89-.87,1.98-1.57,3.23-2.06,1.25-.49,2.58-.74,3.93-.74,1.21,0,2.34.17,3.37.5,1.03.33,1.99.84,2.83,1.51l.05.04-.03,2.21-.2-.17c-.92-.79-1.87-1.38-2.83-1.76-.96-.38-1.98-.57-3.04-.57-2.39,0-4.35.77-5.84,2.28-1.49,1.51-2.25,3.51-2.25,5.94,0,1.22.18,2.34.55,3.31.37.97.93,1.85,1.67,2.6.74.74,1.6,1.31,2.55,1.69.95.39,1.99.58,3.08.58s2.11-.18,3.12-.55c1.01-.37,1.98-.91,2.88-1.62l.2-.16v2.34l-.06.04c-.93.57-1.93,1.01-2.96,1.32-1.04.3-2.08.46-3.1.46m0-19.74c-1.32,0-2.61.24-3.84.72-1.22.48-2.29,1.15-3.15,2-.89.86-1.58,1.91-2.06,3.11-.48,1.19-.72,2.5-.72,3.89s.23,2.72.7,3.9c.46,1.18,1.16,2.23,2.05,3.12.87.87,1.93,1.55,3.15,2.03,2.13.84,4.51.97,6.88.27.99-.29,1.95-.71,2.84-1.25v-1.69c-.86.65-1.79,1.16-2.75,1.5-1.04.37-2.11.56-3.2.56s-2.19-.2-3.17-.6c-.98-.4-1.87-.99-2.63-1.75-.77-.78-1.35-1.69-1.73-2.69-.38-1-.57-2.15-.57-3.4,0-2.5.78-4.56,2.32-6.12,1.54-1.56,3.56-2.35,6.02-2.35,1.09,0,2.15.2,3.13.58.91.36,1.82.91,2.7,1.63l.02-1.56c-.81-.63-1.72-1.11-2.71-1.43-1.01-.32-2.12-.49-3.3-.49"/><path class="cls-2" d="m354.65,53.84c0,1.33-.25,2.59-.76,3.79-.51,1.2-1.23,2.26-2.18,3.2-.97.94-2.06,1.66-3.28,2.15-1.22.49-2.5.74-3.86.74s-2.64-.25-3.85-.74c-1.21-.49-2.3-1.21-3.26-2.15-.96-.95-1.69-2.02-2.19-3.21-.5-1.19-.75-2.45-.75-3.77s.25-2.62.75-3.81c.5-1.2,1.23-2.27,2.19-3.22.94-.93,2.02-1.64,3.23-2.12,1.21-.48,2.5-.72,3.88-.72s2.69.24,3.9.73c1.21.48,2.29,1.19,3.23,2.11.96.95,1.69,2.02,2.19,3.22.5,1.19.75,2.46.75,3.81m-10.08,8.34c1.12,0,2.17-.21,3.17-.62,1-.41,1.89-1.01,2.69-1.8.78-.8,1.38-1.7,1.79-2.72.42-1.02.62-2.09.62-3.21s-.21-2.2-.62-3.21c-.41-1.01-1.01-1.91-1.8-2.72-.78-.79-1.67-1.39-2.67-1.8-1-.41-2.06-.62-3.19-.62s-2.17.21-3.15.62c-.99.41-1.88,1.01-2.68,1.8-.79.81-1.39,1.72-1.8,2.72-.41,1-.62,2.07-.62,3.21s.21,2.2.62,3.21c.41,1.01,1.01,1.91,1.8,2.72.79.8,1.67,1.4,2.65,1.81.98.41,2.04.61,3.18.61"/><path class="cls-2" d="m344.57,63.84c-1.37,0-2.68-.25-3.9-.75-1.22-.5-2.33-1.23-3.3-2.18-.97-.96-1.71-2.05-2.22-3.25-.5-1.2-.76-2.48-.76-3.82s.26-2.66.76-3.86c.5-1.2,1.25-2.3,2.22-3.26.95-.94,2.05-1.66,3.27-2.15,1.22-.48,2.54-.73,3.93-.73s2.73.25,3.95.73c1.23.49,2.33,1.21,3.28,2.14.97.96,1.71,2.06,2.22,3.26.51,1.2.76,2.5.76,3.86s-.26,2.63-.77,3.83c-.51,1.2-1.25,2.29-2.21,3.24-.98.95-2.09,1.68-3.32,2.18-1.22.5-2.54.75-3.9.75m0-19.74c-1.36,0-2.65.24-3.83.71-1.19.47-2.26,1.17-3.19,2.09-.95.94-1.67,2.01-2.16,3.18-.49,1.17-.74,2.44-.74,3.76s.25,2.56.74,3.72c.49,1.17,1.22,2.23,2.16,3.17.94.93,2.03,1.64,3.22,2.12,1.19.48,2.47.73,3.8.73s2.62-.25,3.81-.73c1.2-.48,2.29-1.2,3.24-2.13.94-.92,1.66-1.98,2.16-3.15.5-1.17.75-2.43.75-3.74s-.25-2.59-.74-3.76c-.49-1.17-1.22-2.24-2.16-3.18-.92-.91-2-1.61-3.19-2.09-1.19-.48-2.49-.72-3.86-.72m0,18.21c-1.15,0-2.24-.21-3.23-.62-.99-.41-1.89-1.03-2.69-1.83-.8-.81-1.41-1.74-1.83-2.76-.42-1.02-.63-2.11-.63-3.25s.21-2.25.63-3.25c.41-1.01,1.03-1.94,1.83-2.76.81-.8,1.72-1.41,2.72-1.83,1-.42,2.07-.63,3.2-.63s2.22.21,3.23.63c1.01.41,1.92,1.03,2.71,1.83.8.81,1.41,1.74,1.83,2.76.42,1.02.63,2.11.63,3.25s-.21,2.23-.63,3.25c-.42,1.03-1.04,1.96-1.82,2.76-.81.8-1.73,1.41-2.73,1.83-1.01.42-2.09.63-3.21.63m0-16.68c-1.09,0-2.14.2-3.1.61-.97.4-1.85,1-2.64,1.77-.77.8-1.37,1.7-1.77,2.68-.4.98-.61,2.04-.61,3.16s.21,2.17.61,3.16c.4.99,1,1.89,1.78,2.68.77.78,1.65,1.38,2.61,1.78.96.4,2.01.6,3.13.6s2.14-.2,3.12-.61c.98-.4,1.87-1,2.65-1.77.76-.78,1.36-1.68,1.77-2.68.41-1,.62-2.06.62-3.16s-.2-2.17-.61-3.16c-.4-.99-1-1.89-1.77-2.68-.77-.77-1.65-1.37-2.63-1.77-.98-.4-2.04-.61-3.14-.61"/><polygon class="cls-2" points="363.69 63.21 363.69 43.58 377.01 59.34 377.01 44.38 378.61 44.38 378.61 63.76 365.29 47.98 365.29 63.21 363.69 63.21"/><path class="cls-2" d="m378.74,64.1l-.22-.26-13.1-15.52v15.01h-1.85v-20.1l13.32,15.76v-14.74h1.85v19.85Zm-13.57-16.46l.22.26,13.1,15.52v-18.91h-1.35v15.17l-13.32-15.76v19.16h1.35v-15.45Z"/><path class="cls-2" d="m388.62,60.04l1.46-.79c.27.93.75,1.65,1.42,2.16.67.51,1.48.77,2.42.77,1.19,0,2.12-.35,2.79-1.05.67-.7,1-1.67,1-2.92,0-.91-.23-1.66-.68-2.26-.45-.6-1.42-1.29-2.9-2.08-1.9-1-3.16-1.89-3.78-2.65-.62-.76-.94-1.68-.94-2.75,0-1.34.45-2.43,1.35-3.27.91-.84,2.08-1.26,3.51-1.26.94,0,1.76.2,2.46.6.7.4,1.26,1,1.7,1.8l-1.31.8c-.28-.54-.66-.96-1.16-1.24-.5-.28-1.1-.43-1.78-.43-.93,0-1.66.27-2.21.82-.55.54-.82,1.28-.82,2.2,0,1.32,1.09,2.55,3.27,3.69.39.21.69.36.9.48,1.6.88,2.67,1.72,3.21,2.5.54.78.81,1.8.81,3.05,0,1.69-.49,3.03-1.48,4.02-.98.99-2.32,1.48-4.02,1.48-1.23,0-2.29-.31-3.17-.92-.88-.61-1.56-1.53-2.06-2.75"/><path class="cls-2" d="m393.84,63.84c-1.25,0-2.34-.32-3.24-.94-.89-.62-1.6-1.57-2.1-2.81l-.04-.1,1.69-.91.04.15c.26.9.73,1.6,1.37,2.09.65.49,1.44.74,2.35.74,1.15,0,2.06-.34,2.7-1.02.64-.68.97-1.63.97-2.83,0-.88-.22-1.61-.65-2.19-.44-.58-1.4-1.27-2.86-2.05-1.9-1-3.18-1.9-3.82-2.68-.64-.78-.97-1.73-.97-2.83,0-1.37.47-2.5,1.39-3.36.92-.86,2.13-1.29,3.6-1.29.96,0,1.81.21,2.52.62.71.41,1.3,1.03,1.75,1.85l.06.1-1.53.93-.06-.12c-.26-.52-.64-.92-1.12-1.19-.48-.27-1.06-.41-1.72-.41-.89,0-1.6.26-2.12.78-.52.51-.79,1.23-.79,2.11,0,1.26,1.08,2.47,3.2,3.58.39.21.7.36.9.48,1.61.89,2.7,1.74,3.25,2.54.55.8.83,1.85.83,3.12,0,1.71-.51,3.1-1.51,4.1-1,1.01-2.38,1.52-4.1,1.52m-5.07-3.74c.48,1.14,1.15,2.01,1.97,2.59.85.6,1.89.9,3.09.9,1.65,0,2.97-.49,3.93-1.45.96-.96,1.44-2.28,1.44-3.93,0-1.22-.26-2.22-.79-2.98-.52-.76-1.59-1.59-3.16-2.46-.2-.11-.5-.27-.9-.47-2.21-1.16-3.33-2.43-3.33-3.8,0-.96.29-1.73.86-2.29.57-.57,1.34-.85,2.3-.85.7,0,1.32.15,1.84.44.48.27.87.67,1.15,1.17l1.09-.67c-.42-.72-.95-1.28-1.59-1.65-.68-.39-1.48-.58-2.4-.58-1.4,0-2.55.41-3.43,1.23-.87.81-1.31,1.88-1.31,3.17,0,1.04.31,1.94.91,2.67.62.75,1.87,1.63,3.74,2.62,1.49.79,2.48,1.5,2.94,2.12.46.62.7,1.41.7,2.34,0,1.27-.35,2.28-1.04,3-.69.73-1.66,1.09-2.88,1.09-.97,0-1.81-.27-2.5-.79-.66-.5-1.13-1.19-1.42-2.08l-1.22.66Z"/><path class="cls-2" d="m408.94,44.38h1.69v12.3c0,1.86.42,3.24,1.27,4.15.85.91,2.14,1.36,3.89,1.36s3-.45,3.85-1.36c.85-.91,1.27-2.29,1.27-4.15v-12.3h1.71v11.74c0,2.55-.57,4.45-1.7,5.71-1.13,1.26-2.84,1.88-5.14,1.88s-4.02-.63-5.16-1.88c-1.13-1.26-1.7-3.16-1.7-5.71v-11.74Z"/><path class="cls-2" d="m415.79,63.84c-2.33,0-4.1-.65-5.25-1.92-1.15-1.28-1.73-3.22-1.73-5.79v-11.87h1.94v12.42c0,1.82.42,3.18,1.24,4.06.82.87,2.1,1.32,3.8,1.32s2.94-.44,3.76-1.32c.82-.88,1.24-2.25,1.24-4.06v-12.42h1.96v11.87c0,2.57-.58,4.52-1.73,5.79-1.15,1.28-2.91,1.92-5.23,1.92m-6.73-19.33v11.62c0,2.5.56,4.39,1.66,5.62,1.1,1.22,2.8,1.84,5.06,1.84s3.95-.62,5.05-1.84c1.1-1.23,1.66-3.12,1.66-5.62v-11.62h-1.46v12.17c0,1.88-.44,3.31-1.3,4.23-.87.93-2.19,1.4-3.94,1.4s-3.11-.47-3.98-1.4c-.87-.93-1.3-2.35-1.3-4.23v-12.17h-1.44Z"/><polygon class="cls-2" points="433.88 63.21 433.88 44.38 435.6 44.38 435.6 61.61 442.04 61.61 442.04 63.21 433.88 63.21"/><path class="cls-2" d="m442.17,63.34h-8.41v-19.08h1.96v17.23h6.44v1.85Zm-8.16-.25h7.91v-1.35h-6.44v-17.23h-1.46v18.58Z"/><polygon class="cls-2" points="454.32 63.21 454.32 45.98 449.13 45.98 449.13 44.38 461.22 44.38 461.22 45.98 456.03 45.98 456.03 63.21 454.32 63.21"/><path class="cls-2" d="m456.16,63.34h-1.97v-17.23h-5.19v-1.85h12.34v1.85h-5.19v17.23Zm-1.72-.25h1.47v-17.23h5.19v-1.35h-11.84v1.35h5.19v17.23Z"/><path class="cls-2" d="m466.32,63.21l8.26-19.56,7.92,19.56h-1.86l-2.4-6.38h-7.69l-2.49,6.38h-1.73Zm4.81-7.84h6.55l-3.21-8.19-3.34,8.19Z"/><path class="cls-2" d="m482.69,63.34h-2.14l-.03-.08-2.37-6.29h-7.51l-2.49,6.38h-2.01l.07-.17,8.38-19.84,8.1,20.01Zm-1.96-.25h1.59l-7.74-19.11-8.07,19.11h1.46l2.49-6.38h7.86l.03.08,2.37,6.29Zm-2.86-7.59h-6.92l.07-.17,3.46-8.48,3.39,8.65Zm-6.55-.25h6.18l-3.03-7.73-3.15,7.73Z"/><polygon class="cls-2" points="491.33 63.21 491.33 43.58 504.65 59.34 504.65 44.38 506.25 44.38 506.25 63.76 492.93 47.98 492.93 63.21 491.33 63.21"/><path class="cls-2" d="m506.38,64.1l-.22-.26-13.1-15.52v15.01h-1.85v-20.1l13.32,15.76v-14.74h1.85v19.85Zm-13.57-16.46l.22.26,13.1,15.52v-18.91h-1.35v15.17l-13.32-15.76v19.16h1.35v-15.45Z"/><polygon class="cls-2" points="521.01 63.21 521.01 45.98 515.82 45.98 515.82 44.38 527.91 44.38 527.91 45.98 522.72 45.98 522.72 63.21 521.01 63.21"/><path class="cls-2" d="m522.85,63.34h-1.96v-17.23h-5.19v-1.85h12.34v1.85h-5.19v17.23Zm-1.71-.25h1.46v-17.23h5.19v-1.35h-11.84v1.35h5.19v17.23Z"/><path class="cls-2" d="m536.07,60.04l1.46-.79c.27.93.75,1.65,1.42,2.16.67.51,1.48.77,2.43.77,1.19,0,2.12-.35,2.79-1.05.67-.7,1-1.67,1-2.92,0-.91-.23-1.66-.68-2.26-.45-.6-1.42-1.29-2.9-2.08-1.9-1-3.15-1.89-3.78-2.65-.63-.76-.94-1.68-.94-2.75,0-1.34.45-2.43,1.35-3.27.9-.84,2.07-1.26,3.51-1.26.94,0,1.76.2,2.46.6.7.4,1.26,1,1.7,1.8l-1.31.8c-.27-.54-.66-.96-1.16-1.24-.5-.28-1.09-.43-1.78-.43-.92,0-1.66.27-2.21.82-.55.54-.82,1.28-.82,2.2,0,1.32,1.09,2.55,3.27,3.69.4.21.7.36.9.48,1.6.88,2.67,1.72,3.21,2.5.54.78.81,1.8.81,3.05,0,1.69-.49,3.03-1.48,4.02-.98.99-2.32,1.48-4.02,1.48-1.23,0-2.29-.31-3.16-.92-.88-.61-1.56-1.53-2.06-2.75"/><path class="cls-2" d="m541.3,63.84c-1.25,0-2.34-.32-3.24-.94-.89-.62-1.6-1.57-2.1-2.81l-.04-.1,1.69-.91.04.15c.26.9.73,1.6,1.37,2.09.65.49,1.44.74,2.35.74,1.15,0,2.06-.34,2.7-1.02.64-.68.97-1.63.97-2.83,0-.88-.22-1.61-.65-2.19-.44-.58-1.4-1.27-2.86-2.05-1.9-1-3.18-1.9-3.82-2.68-.64-.78-.97-1.73-.97-2.83,0-1.37.47-2.5,1.39-3.36.92-.86,2.13-1.29,3.6-1.29.96,0,1.81.21,2.52.62.71.41,1.3,1.03,1.75,1.85l.06.1-1.53.93-.06-.12c-.26-.52-.64-.92-1.11-1.19-.48-.27-1.06-.41-1.72-.41-.89,0-1.6.26-2.12.78-.52.51-.79,1.23-.79,2.11,0,1.26,1.08,2.47,3.2,3.58.4.21.7.36.9.48,1.61.89,2.7,1.74,3.25,2.54.55.8.83,1.85.83,3.12,0,1.72-.51,3.1-1.51,4.1-1,1.01-2.38,1.52-4.1,1.52m-5.07-3.74c.48,1.14,1.15,2.01,1.97,2.59.85.6,1.89.9,3.09.9,1.65,0,2.97-.49,3.93-1.45.96-.96,1.44-2.28,1.44-3.93,0-1.22-.26-2.22-.79-2.98-.52-.76-1.59-1.59-3.16-2.46-.2-.11-.5-.27-.9-.47-2.21-1.16-3.33-2.44-3.33-3.8,0-.96.29-1.73.86-2.29.57-.57,1.34-.85,2.3-.85.7,0,1.32.15,1.84.44.48.27.87.67,1.15,1.17l1.09-.67c-.42-.72-.95-1.28-1.6-1.65-.67-.39-1.48-.58-2.4-.58-1.4,0-2.55.41-3.43,1.23-.87.81-1.31,1.88-1.31,3.17,0,1.04.31,1.94.91,2.67.61.75,1.87,1.63,3.74,2.62,1.49.79,2.48,1.5,2.94,2.12.47.62.7,1.41.7,2.34,0,1.27-.35,2.28-1.04,3-.69.73-1.66,1.09-2.88,1.09-.97,0-1.81-.27-2.5-.79-.66-.5-1.13-1.2-1.42-2.08l-1.22.66Z"/><rect class="cls-1" x="286.2" y="10.33" width="1.5" height="87.34"/></g></svg>